<svg width="102" height="112" viewBox="0 0 102 112" fill="none" xmlns="http://www.w3.org/2000/svg">
<path d="M13.3484 43.7574C25.9965 37.1962 40.0061 32.9219 40.0061 32.9219C40.0061 32.9219 54.1878 37.2497 66.8959 43.8785V15.0141H72.8949V9.92909H41.9093V0H38.1042V9.92909H6.48633V15.0141H13.3484V43.7574ZM50.4094 17.7995H62.5005V28.7229H50.4094V17.7995ZM33.9293 17.7995H46.0191V28.7229H33.9293V17.7995ZM17.4492 17.7995H29.5403V28.7229H17.4492V17.7995Z" fill="#C72E45"/>
<path d="M41.7598 37.678V112.009L69.2652 93.7432C69.2652 93.7432 80.1517 68.0275 80.0114 63.1783C79.6685 50.9725 49.4287 40.2123 41.7598 37.678Z" fill="#C72E45"/>
<path d="M38.1907 37.6984C30.4262 40.2684 0.343152 51.0044 0.00151689 63.1783C-0.139981 68.0275 9.66036 90.5933 11.5967 93.7432L38.1907 111.971V37.6984Z" fill="#C72E45"/>
<path d="M69.1187 13.6896C69.2183 13.4423 69.4098 13.2428 69.6533 13.1326C69.8968 13.0224 70.1735 13.01 70.4259 13.098C70.6783 13.186 70.887 13.3675 71.0085 13.6049C71.13 13.8423 71.155 14.1172 71.0783 14.3725C69.4828 18.9423 72.6497 22.355 75.0644 24.1829L76.0399 22.7897C76.3679 22.3225 77.1013 21.934 77.6715 21.9271L83.1466 21.9511C83.8154 21.9712 84.4664 22.1711 85.0306 22.5296L101.164 33.8033C101.539 34.0665 101.795 34.4671 101.874 34.9175C101.954 35.3679 101.851 35.8313 101.588 36.2063L94.2566 46.6602C93.707 47.439 92.8294 47.3448 92.0463 46.8006L75.9128 35.5251C75.4491 35.1982 74.9133 34.4931 74.7244 33.9539L73.0104 28.5712C72.8215 28.0338 72.9365 27.214 73.2645 26.7468L73.8588 25.8978C70.6163 23.4213 67.2501 19.0449 69.1187 13.6896ZM76.6255 29.706C76.9228 29.9133 77.2581 30.0602 77.6123 30.1384C77.9665 30.2165 78.3327 30.2244 78.69 30.1614C79.0472 30.0985 79.3885 29.966 79.6944 29.7716C80.0003 29.5771 80.2647 29.3245 80.4726 29.0282C80.8935 28.4286 81.0584 27.687 80.9312 26.9663C80.804 26.2456 80.3951 25.6047 79.7942 25.1841C79.3231 24.8552 78.7606 24.6812 78.1854 24.6864C77.6102 24.6916 77.0511 24.8758 76.586 25.2132C77.0532 25.4939 77.3743 25.6582 77.4344 25.6839C77.6473 25.7851 77.8194 25.9553 77.9226 26.1667C78.0257 26.3781 78.0537 26.6181 78.002 26.8474C77.9503 27.0768 77.822 27.2818 77.638 27.4289C77.4541 27.5761 77.2255 27.6566 76.9896 27.6573C76.8419 27.6573 76.6908 27.6231 76.5483 27.5563C76.2151 27.3988 75.8579 27.2123 75.4852 26.9915C75.3994 27.5051 75.461 28.0323 75.6627 28.5125C75.8645 28.9928 76.1982 29.4065 76.6255 29.706Z" fill="#C72E45"/>
</svg>
