<svg width="117" height="100" viewBox="0 0 117 100" fill="none" xmlns="http://www.w3.org/2000/svg">
<path d="M37.4861 33.0013C46.9405 28.0534 57.4125 24.8296 57.4125 24.8296C57.4125 24.8296 68.0139 28.0938 77.5129 33.0938V11.3245H81.9974V7.49001H58.8357V0H55.9918V7.48882H32.3564V11.3233H37.4861V33.0013ZM65.1887 13.4232H74.2271V21.6614H65.1887V13.4232ZM52.8705 13.4232H61.9076V21.6614H52.8705V13.4232ZM40.5522 13.4232H49.5905V21.6614H40.5522V13.4232Z" fill="#C72E45"/>
<path d="M97.2441 93.538L79.4648 70.2676C80.6529 67.4089 87.4137 50.9835 87.3174 47.6482C87.06 38.4425 64.4553 30.3276 58.7239 28.4163V84.4757L69.189 77.4636L68.089 93.538H46.6019L45.4796 77.1328L56.0563 84.4461V28.4317C50.252 30.3703 27.7661 38.4662 27.5099 47.6482C27.4135 50.9752 33.4657 65.3553 35.6492 69.7151L17.4468 93.538H0V100H115V93.538H97.2441ZM76.7254 72.4149L92.8642 93.5392H84.1408L75.8722 72.9876L76.7254 72.4149ZM72.8344 75.0222L72.9225 74.9629L80.3967 93.5392H71.5675L72.8344 75.0222ZM43.1246 93.538H34.2954L41.8413 74.7827L43.1246 93.538ZM38.2052 72.1019L38.9644 72.6271L30.5513 93.538H21.8279L38.2052 72.1019Z" fill="#C72E45"/>
<path d="M104.581 47.7404L104.189 48.149L103.442 47.4316C101.94 45.9897 99.5459 46.0381 98.1042 47.5397L86.3458 59.7859C84.9041 61.2874 84.953 63.6815 86.4547 65.1233L87.2019 65.8408L86.8424 66.2152C86.8228 66.2355 86.8055 66.2575 86.7896 66.2797C86.5675 66.5937 86.2921 67.0285 86.2427 67.3225C86.1942 67.6069 86.3064 68.0866 86.4075 68.4389C86.435 68.5344 86.4872 68.6205 86.5592 68.6896L90.1654 72.1522C90.2201 72.2046 90.2844 72.2461 90.3559 72.273C90.727 72.4152 91.2352 72.5791 91.5385 72.5565C91.8426 72.5331 92.3208 72.296 92.6674 72.1002C92.7158 72.0725 92.7594 72.0387 92.7978 71.9986L100.862 63.5997C101.051 63.4683 101.278 63.3345 101.413 63.2749C101.526 63.3606 101.709 63.5319 101.87 63.7085L105.129 66.8384C104.224 68.1114 104.36 69.8931 105.52 71.0067L111.1 76.3643C112.376 77.5889 114.41 77.5472 115.635 76.2718C116.86 74.9959 116.819 72.9615 115.543 71.7369L109.963 66.3794C108.85 65.3109 107.162 65.2072 105.936 66.0433L102.683 62.9212C102.232 62.4216 101.849 62.152 101.541 62.1194C101.217 62.0846 100.751 62.2834 100.16 62.7102C100.132 62.7297 100.106 62.752 100.082 62.7769L92.0401 71.1525C91.7961 71.2853 91.5237 71.4114 91.4747 71.4265C91.3899 71.4218 91.1171 71.3437 90.8645 71.2532L87.4559 67.9803C87.4015 67.7711 87.3581 67.5638 87.3522 67.5348C87.3794 67.451 87.5357 67.1876 87.6887 66.9664L88.0179 66.6236L88.7653 67.3412C90.267 68.783 92.6608 68.7343 94.1025 67.2328L105.861 54.987C107.302 53.4854 107.254 51.0916 105.752 49.6498L105.005 48.9329L105.398 48.5243C105.614 48.299 105.607 47.9407 105.381 47.724C105.156 47.5076 104.797 47.5155 104.581 47.7404Z" fill="#C8102E"/>
</svg>
