<svg width="115" height="100" viewBox="0 0 115 100" fill="none" xmlns="http://www.w3.org/2000/svg">
<path d="M37.4861 33.0013C46.9405 28.0534 57.4125 24.8296 57.4125 24.8296C57.4125 24.8296 68.0139 28.0938 77.5129 33.0938V11.3245H81.9974V7.49001H58.8357V0H55.9918V7.48882H32.3564V11.3233H37.4861V33.0013ZM65.1887 13.4232H74.2271V21.6614H65.1887V13.4232ZM52.8705 13.4232H61.9076V21.6614H52.8705V13.4232ZM40.5522 13.4232H49.5905V21.6614H40.5522V13.4232Z" fill="#C72E45"/>
<path d="M97.2441 93.538L79.4648 70.2676C80.6529 67.4089 87.4137 50.9835 87.3174 47.6482C87.06 38.4425 64.4553 30.3276 58.7239 28.4163V84.4757L69.189 77.4636L68.089 93.538H46.6019L45.4796 77.1328L56.0563 84.4461V28.4317C50.252 30.3703 27.7661 38.4662 27.5099 47.6482C27.4135 50.9752 33.4657 65.3553 35.6492 69.7151L17.4468 93.538H0V100H115V93.538H97.2441ZM76.7254 72.4149L92.8642 93.5392H84.1408L75.8722 72.9876L76.7254 72.4149ZM72.8344 75.0222L72.9225 74.9629L80.3967 93.5392H71.5675L72.8344 75.0222ZM43.1246 93.538H34.2954L41.8413 74.7827L43.1246 93.538ZM38.2052 72.1019L38.9644 72.6271L30.5513 93.538H21.8279L38.2052 72.1019Z" fill="#C72E45"/>
<g clip-path="url(#clip0_293_24)">
<path d="M88.334 69.4157C90.1488 69.622 91.7864 68.318 91.9918 66.5031C92.1982 64.6895 95.4059 23.2664 93.5914 23.0606C91.7769 22.8549 85.6277 63.9443 85.4216 65.7583C85.2162 67.5732 86.5206 69.2105 88.334 69.4157ZM87.49 64.9817C87.6695 63.3953 88.3155 59.8015 89.4068 59.9593C90.7085 59.8883 90.3304 63.6972 90.1506 65.2831C90.0669 66.0172 89.4026 66.5462 88.6693 66.4626C87.9358 66.3799 87.4068 65.7155 87.49 64.9817Z" fill="#C72E45"/>
<path d="M94.981 44.6429C94.8776 46.4544 94.7669 48.2695 94.6541 50.0382C102.46 51.304 109.056 52.276 109.759 52.3557C111.574 52.5611 113.211 51.2567 113.416 49.4434C113.623 47.6286 112.319 45.991 110.504 45.7855C109.793 45.7045 102.996 45.1623 94.981 44.6429ZM110.463 49.108C110.38 49.8415 109.716 50.3705 108.982 50.2873C107.396 50.1078 103.802 49.4617 103.96 48.3705C103.889 47.0687 107.698 47.4468 109.284 47.6266C110.018 47.7103 110.547 48.3747 110.463 49.108Z" fill="#C72E45"/>
<path d="M87.3365 44.1807C77.0274 43.6095 67.1623 43.3027 67.0621 44.1859C66.9628 45.0619 76.4956 46.9495 86.5843 48.6903C86.8281 47.2041 87.0803 45.6907 87.3365 44.1807Z" fill="#C72E45"/>
</g>
<defs>
<clipPath id="clip0_293_24">
<rect width="34" height="34" fill="white" transform="translate(114.777 49.5977) rotate(141.47)"/>
</clipPath>
</defs>
</svg>
