<svg width="115" height="101" viewBox="0 0 115 101" fill="none" xmlns="http://www.w3.org/2000/svg">
<path d="M37.4861 33.0013C46.9405 28.0534 57.4125 24.8296 57.4125 24.8296C57.4125 24.8296 68.0139 28.0938 77.5129 33.0938V11.3245H81.9974V7.49001H58.8357V0H55.9918V7.48882H32.3564V11.3233H37.4861V33.0013ZM65.1887 13.4232H74.2271V21.6614H65.1887V13.4232ZM52.8705 13.4232H61.9076V21.6614H52.8705V13.4232ZM40.5522 13.4232H49.5905V21.6614H40.5522V13.4232Z" fill="#C72E45"/>
<path d="M97.2441 93.538L79.4648 70.2676C80.6529 67.4089 87.4137 50.9835 87.3174 47.6482C87.06 38.4425 64.4553 30.3276 58.7239 28.4163V84.4757L69.189 77.4636L68.089 93.538H46.6019L45.4796 77.1328L56.0563 84.4461V28.4317C50.252 30.3703 27.7661 38.4662 27.5099 47.6482C27.4135 50.9752 33.4657 65.3553 35.6492 69.7151L17.4468 93.538H0V100H115V93.538H97.2441ZM76.7254 72.4149L92.8642 93.5392H84.1408L75.8722 72.9876L76.7254 72.4149ZM72.8344 75.0222L72.9225 74.9629L80.3967 93.5392H71.5675L72.8344 75.0222ZM43.1246 93.538H34.2954L41.8413 74.7827L43.1246 93.538ZM38.2052 72.1019L38.9644 72.6271L30.5513 93.538H21.8279L38.2052 72.1019Z" fill="#C72E45"/>
<path d="M99.1444 58.7228V66.5423H105.414V58.7569C108.264 59.9188 110.262 62.5932 110.262 65.7102C110.262 68.9181 108.147 71.6523 105.163 72.7567L105.163 97.3353C105.163 98.9901 103.816 100.332 102.154 100.332C100.492 100.332 99.145 98.9901 99.145 97.3353V72.6993C96.2493 71.5574 94.2129 68.859 94.2129 65.7108C94.2123 62.5631 96.2476 59.8658 99.1444 58.7228Z" fill="#C72E45"/>
</svg>
