<svg width="99" height="99" viewBox="0 0 99 99" fill="none" xmlns="http://www.w3.org/2000/svg">
<path d="M66.206 4.1669C60.8693 4.1669 53.5603 6.01155 43.641 7.8968C39.2904 8.72245 37.5502 10.627 36.5834 13.0924C35.7133 15.2967 35.6553 18.0617 35.7326 20.6508L49.9832 29.1973H79.0838L81.7135 18.6901C79.8185 13.7034 77.8849 10.2829 75.874 8.0979C73.7857 5.83753 71.6394 4.78178 68.8937 4.35639C68.1976 4.25005 67.4822 4.19204 66.7088 4.1727C66.5347 4.16883 66.3801 4.1669 66.206 4.1669ZM3.61561 13.7343L3.3449 17.2032L10.0815 17.7272L10.4335 14.2641L3.61561 13.7343ZM13.9043 14.5329L13.5523 17.9979L32.2135 19.452C32.1941 18.3343 32.2328 17.1587 32.3681 15.9676L13.9043 14.5329ZM57.4275 32.6777V47.7598H66.9795L74.5205 32.6777H57.4275ZM21.656 41.5723C17.4195 41.5723 12.746 44.0859 8.86918 46.4643C4.99232 48.8619 2.00879 51.2402 2.00879 51.2402L4.17828 53.9473C4.17828 53.9473 7.0168 51.685 10.6906 49.442C14.3664 47.1797 18.9741 45.0527 21.656 45.0527C24.3437 45.0527 26.9347 46.9863 29.8545 49.3066C32.7549 51.627 35.984 54.334 40.2185 54.334C44.4531 54.334 47.6822 51.627 50.5826 49.3066C51.3754 48.6686 52.1488 48.0691 52.9029 47.5277C53.1736 46.0195 53.4056 44.4727 53.5797 42.9451C51.6847 43.9506 50.0025 45.3234 48.417 46.5996C45.4972 48.9199 42.9062 50.8535 40.2185 50.8535C37.5308 50.8535 34.9398 48.9199 32.0201 46.5996C29.1197 44.2793 25.8906 41.5723 21.656 41.5723ZM94.8232 41.959C94.8232 41.959 91.9808 44.2213 88.307 46.4643C84.6332 48.7266 80.0312 50.8535 77.3435 50.8535C75.2166 50.8535 73.167 49.6547 70.9627 47.9918C70.4599 49.2293 70.0732 50.3701 69.7832 51.4723C71.9681 53.0385 74.4238 54.334 77.3435 54.334C81.5781 54.334 86.2574 51.8203 90.1246 49.442C94.0111 47.0443 96.9888 44.666 96.9888 44.666L94.8232 41.959ZM55.6873 51.2402C55.6099 51.569 55.5133 51.917 55.4359 52.2457C54.3531 56.6156 53.1156 60.2701 51.24 62.5131V69.416H70.4793C67.8496 66.0322 66.1674 62.6484 65.684 58.8973C65.3746 56.4803 65.5679 53.9473 66.2447 51.2402H55.6873ZM68.0623 72.5098V75.9902C68.2556 75.9902 68.1976 75.9516 68.4103 76.2609C68.6424 76.5703 68.8937 77.2277 69.0678 78.0785C69.2804 79.1807 69.3578 80.5535 69.3965 81.791H62.0295L63.0156 72.8965H51.24V79.9154L60.676 94.05L61.6427 85.2715H69.4351C69.4545 86.625 69.5318 88.1912 69.8412 89.6801C70.0539 90.7629 70.3826 91.8457 71.0207 92.7932C71.6781 93.7406 72.8963 94.5527 74.2498 94.5527V91.0723C74.0564 91.0723 74.1144 91.1109 73.9017 90.8016C73.6697 90.4922 73.4183 89.8348 73.2443 88.984C73.0316 87.8818 72.9543 86.509 72.9156 85.2715H75.7967V81.791H72.8769C72.8576 80.4375 72.7802 78.8713 72.4709 77.3824C72.2582 76.2996 71.9295 75.2168 71.2914 74.2693C70.634 73.3219 69.4158 72.5098 68.0623 72.5098Z" fill="#C72E45"/>
</svg>
