<?xml version="1.0" encoding="iso-8859-1"?>
<!-- Uploaded to: SVG Repo, www.svgrepo.com, Generator: SVG Repo Mixer Tools -->
<svg fill="#C72E45" version="1.1" id="Layer_1" xmlns="http://www.w3.org/2000/svg" xmlns:xlink="http://www.w3.org/1999/xlink" 
	 viewBox="0 0 512.001 512.001" xml:space="preserve">
<g>
	<g>
		<path d="M163.05,85.993L4.923,244.12c-6.563,6.558-6.563,17.201,0,23.76l57.311,57.311l170.007-170.007L163.05,85.993z"/>
	</g>
</g>
<g>
	<g>
		<path d="M267.881,4.923c-6.564-6.564-17.197-6.564-23.76,0L186.81,62.234l170.007,170.007l69.191-69.191L267.881,4.923z"/>
	</g>
</g>
<g>
	<g>
		
			<rect x="201.506" y="201.521" transform="matrix(0.7071 -0.7071 0.7071 0.7071 -106.0452 255.9954)" width="108.97" height="108.97"/>
	</g>
</g>
<g>
	<g>
		<path d="M155.184,279.76l-69.19,69.191L244.12,507.078c6.564,6.564,17.196,6.564,23.76,0l57.311-57.311L155.184,279.76z"/>
	</g>
</g>
<g>
	<g>
		<path d="M507.078,244.121l-57.311-57.311L279.76,356.816l69.191,69.191l158.127-158.127
			C513.641,261.323,513.641,250.679,507.078,244.121z"/>
	</g>
</g>
</svg>
