<?xml version="1.0" encoding="utf-8"?><!-- Uploaded to: SVG Repo, www.svgrepo.com, Generator: SVG Repo Mixer Tools -->
<svg version="1.1" id="Uploaded to svgrepo.com" xmlns="http://www.w3.org/2000/svg" xmlns:xlink="http://www.w3.org/1999/xlink" 
	 width="800px" height="800px" viewBox="0 0 32 32" xml:space="preserve">
<style type="text/css">
	.linesandangles_een{fill:#C72E45;}
</style>
<path class="linesandangles_een" d="M19.037,10.556c-0.958,0-1.621,0.614-1.79,0.786l-14,16l1.411,1.411l16.048-14.045
	c0.686-0.686,1.252-2.162,0-3.414C20.098,10.684,19.462,10.556,19.037,10.556z M19.341,13.248c-0.328,0.328-2.183,1.911-2.183,1.911
	L16.84,14.84c0,0,1.467-1.732,1.854-2.12S19.669,12.919,19.341,13.248z M22.836,7.75l1.414,1.414l-1.414,1.414l-1.414-1.414
	L22.836,7.75z M28,4v1.418L25.664,7.75L24.25,6.335L24.586,6H24V4H28z M22,6h-2V4h2V6z M18,6h-2V4h2V6z M14,6h-2V4h2V6z M10,6H8V4h2
	V6z M6,6H4V4h2V6z M6,10H4V8h2V10z M6,14H4v-2h2V14z M6,18H4v-2h2V18z"/>
</svg>
