<svg width="100" height="100" viewBox="0 0 100 100" fill="none" xmlns="http://www.w3.org/2000/svg">
<g clip-path="url(#clip0_237_38)">
<path d="M48.0625 0.620889C49.2215 -0.206963 50.7785 -0.206963 51.9375 0.620889L98.604 33.9542C99.48 34.5799 100 35.5901 100 36.6667V96.6667C100 98.5073 98.5073 100 96.6667 100H86.6667V46.6667H13.3333V100H3.33333C1.49239 100 0 98.5073 0 96.6667V36.6667C0 35.5901 0.519885 34.5799 1.39587 33.9542L48.0625 0.620889Z" fill="#C72E45"/>
<path d="M69.2664 69.8949L66.5625 68.9936V58.5938C66.5615 57.7155 66.2122 56.8736 65.5912 56.2526C64.9702 55.6316 64.1282 55.2823 63.25 55.2812H51.6563V51.9688C51.6563 51.5295 51.4818 51.1082 51.1711 50.7976C50.8605 50.487 50.4393 50.3125 50 50.3125C49.5607 50.3125 49.1395 50.487 48.8289 50.7976C48.5182 51.1082 48.3438 51.5295 48.3438 51.9688V55.2812H36.75C35.8718 55.2823 35.0298 55.6316 34.4088 56.2526C33.7878 56.8736 33.4385 57.7155 33.4375 58.5938V68.9936L30.7336 69.8949C30.0737 70.1143 29.4997 70.536 29.0932 71.1001C28.6866 71.6643 28.4681 72.3421 28.4688 73.0375V80.125C28.4688 80.2789 28.4902 80.432 28.5324 80.58C31.7869 91.9706 46.3616 95.8914 49.2501 96.5617C49.7436 96.6755 50.2564 96.6755 50.7499 96.5617C53.6384 95.8914 68.2131 91.9706 71.4676 80.58C71.5098 80.432 71.5312 80.2789 71.5312 80.125V73.0375C71.5319 72.3421 71.3134 71.6643 70.9068 71.1001C70.5003 70.536 69.9263 70.1143 69.2664 69.8949ZM51.6563 81.7812C51.6563 82.2205 51.4818 82.6418 51.1711 82.9524C50.8605 83.263 50.4393 83.4375 50 83.4375C49.5607 83.4375 49.1395 83.263 48.8289 82.9524C48.5182 82.6418 48.3438 82.2205 48.3438 81.7812V70.2771C48.3438 69.8378 48.5182 69.4165 48.8289 69.1059C49.1395 68.7953 49.5607 68.6208 50 68.6208C50.4393 68.6208 50.8605 68.7953 51.1711 69.1059C51.4818 69.4165 51.6563 69.8378 51.6563 70.2771V81.7812ZM63.25 67.8895L51.0475 63.8221C50.3673 63.5969 49.6325 63.5969 48.9523 63.8221L36.75 67.8895V58.5938H63.25V67.8895Z" fill="#C72E45"/>
</g>
<defs>
<clipPath id="clip0_237_38">
<rect width="100" height="100" fill="white"/>
</clipPath>
</defs>
</svg>
