<?xml version="1.0" encoding="iso-8859-1"?>
<!-- Uploaded to: SVG Repo, www.svgrepo.com, Generator: SVG Repo Mixer Tools -->
<svg fill="#C72E45" height="800px" width="800px" version="1.1" id="Capa_1" xmlns="http://www.w3.org/2000/svg" xmlns:xlink="http://www.w3.org/1999/xlink" 
	 viewBox="0 0 460 460" xml:space="preserve">
<g>
	<g id="Layer_1_44_">
		<g>
			<path d="M280.91,234.429c-0.09-0.1-0.178-0.195-0.266-0.292c-0.925,0.034-1.842,0.035-2.756,0.002
				c-7.988-0.272-15.643-2.869-22.139-7.507c-0.041-0.03-0.076-0.06-0.118-0.089c-7.441,6.046-11.873,15.32-11.784,24.977
				c0.1,10.344,5.442,20.224,14.018,25.998c3.507,2.358,7.479,3.994,11.624,4.804l0.042,0.008
				c10.271,1.991,21.072-1.314,28.479-8.703c2.285-2.281,4.173-4.896,5.643-7.721c-5.358-9.218-10.669-16.991-16.333-23.927
				C285.148,239.314,283.093,236.8,280.91,234.429z"/>
			<path d="M74.133,178.097c3.77,2.779,8.129,3.093,12.559,2.071c5.887-1.364,11.736-2.653,17.691-3.677
				c14.238-2.446,28.816-3.155,43.245-2.838c7.271,0.159,14.537,0.706,21.77,1.448c10.978,1.126,10.56,1.175,14.81,1.856
				c0,0,2.606,2.514,3.856,3.453c3.86,2.896,8.171,4.588,12.795,5.812c2.19,0.581,4.36,1.233,6.504,1.964
				c7.449,2.542,14.582,5.971,21.39,9.902c4.975,2.865,9.787,6.013,14.45,9.361c2.739,1.969,5.429,4.003,8.069,6.101
				c2.789,2.214,5.421,4.679,8.32,6.748c5.143,3.677,11.334,5.772,17.655,5.986c1.635,0.059,3.276-0.016,4.901-0.208
				c0.52-0.064,0.725-0.235,1.098,0.174c0.269,0.286,0.535,0.573,0.802,0.861c0.66,0.7,1.324,1.398,1.974,2.107
				c2.342,2.546,4.536,5.231,6.725,7.911c9.183,11.248,16.666,23.626,23.384,36.462c3.05,5.828,5.586,11.916,8.056,18.003
				c1.661,4.097,3.112,8.13,6.622,11.069c5.784,4.836,14.3,5.265,20.53,1.009c6.188-4.224,8.896-12.26,6.553-19.368
				c-3.91-11.868-7.994-23.728-13.531-34.961c-6.557-13.303-13.84-26.09-22.537-38.123c-2.098-2.901-4.261-5.779-6.535-8.539
				c-1.102-1.334-2.175-2.692-3.298-4.006c-0.445-0.526-1.433-1.261-1.372-1.96c0.066-0.809,0.107-1.62,0.113-2.433
				c0.061-5.833-1.467-11.65-4.412-16.691c-3.395-5.805-8.683-9.849-13.851-13.989c-5.55-4.447-11.257-8.697-17.143-12.686
				c-10.847-7.357-22.309-13.845-34.352-19.035c-5.673-2.447-11.472-4.604-17.372-6.438c-2.907-0.904-5.848-1.792-8.816-2.472
				c-1.591-0.362-2.895-1.224-4.34-1.973c-1.564-0.816-3.145-1.6-4.717-2.397c-12.875-6.533-26.631-11.616-40.443-15.773
				c-13.656-4.107-27.682-7.172-41.816-9.057c-12.121-1.616-24.346-2.625-36.586-2.662c-5.189-0.016-10.092,3.055-12.325,7.743
				c-2.271,4.751-1.501,10.539,1.899,14.557c1.651,1.948,3.848,3.409,6.286,4.169c1.449,0.452,2.973,0.601,4.471,0.807
				c6.297,0.877,12.531,1.81,18.775,2.998c14.008,2.667,27.797,6.7,41.081,11.875c3.933,1.533,7.806,3.162,11.671,4.852
				c-14.577,0.491-29,2.486-43.33,5.085c-12.751,2.308-25.082,6.281-37.279,10.562c-4.61,1.617-8.184,5.359-9.278,10.171
				C67.646,169.224,69.767,174.877,74.133,178.097z"/>
			<polygon points="0,239.96 0,360.083 54.11,360.083 85.609,239.96 			"/>
			<path d="M397.924,339.319c-21.844-6.865-43.835-10.939-66.732-11.92c-21.605-0.917-42.879,0.681-64.046,5.12
				c-21.88,4.586-43.286,7.651-65.626,8.919c-9.929,0.027-21.296,0.691-31.748,0.357c-12.334-0.397-24.521-2.024-36.775-3.277
				c-20.389-2.087-40.283-1.172-60.417,2.52c21.046,4.462,41.539,9.201,62.08,15.684c21.903,6.916,43.942,10.937,66.916,11.917
				c21.549,0.926,42.737-0.676,63.858-5.08c21.709-4.535,43.152-8.048,65.374-8.876c21.975-0.82,44.455,0.502,66.79,2.72
				c21.006,2.145,41.643,1.703,62.402-2.356C438.951,350.558,418.473,345.779,397.924,339.319z"/>
		</g>
	</g>
</g>
</svg>
