<svg width="1570" height="572" viewBox="0 0 1570 572" fill="none" xmlns="http://www.w3.org/2000/svg">
<path d="M281.38 0.999988C275.609 1.86979 263.51 5.60937 258.88 19.5C258.88 19.5 349.542 78.86 374.88 99C394.932 131.276 301.88 110 301.88 110C301.88 110 261.052 140.27 248.88 155.5C248.656 176.422 544.12 148.255 388.88 314.5C317.24 325.849 221.438 314.12 147.38 343C135.687 359.406 124.64 376.13 115.38 394C105.474 411.703 98.3124 430.808 89.38 449C64.364 449.651 11.38 455.5 11.38 455.5V488C11.38 488 42.124 486.979 57.88 492.5C74.156 499.229 90.36 533.484 102.88 533.5C163.76 533.5 200.38 509 200.38 509C200.38 509 237 533.5 297.88 533.5C358.76 533.5 395.38 509 395.38 509C395.38 509 432 533.5 492.88 533.5C553.76 533.5 590.38 509 590.38 509C590.38 509 626.5 533.5 687.38 533.5C748.26 533.5 784.88 509 784.88 509C784.88 509 821.5 533.5 882.38 533.5C943.26 533.5 979.88 509 979.88 509C979.88 509 1016.5 533.5 1077.38 533.5C1138.26 533.5 1174.38 509 1174.38 509C1174.38 509 1208.28 531.724 1264.88 533.5C1344.02 477.958 1503.44 401.834 1498.38 315.5L1463.38 309L1486.38 280H1525.38L1564.38 228C1378.53 234.562 1047.88 235 1047.88 235C1047.88 235 1020.11 237.771 1009.88 229C951.724 182.162 908.308 124.37 847.88 113C798.688 103.745 615.98 117.49 485.88 91.5C426.578 74.7032 284.38 0.999988 284.38 0.999988C284.38 0.999988 283.302 0.708328 281.38 0.999988ZM692.38 189C701.416 188.901 706.88 189 706.88 189L705.88 254H531.38C547.219 195.932 653.218 189.432 692.38 189ZM726.38 189H791.38V254H726.38V189ZM810.88 189H882.38V254H810.88V189ZM901.88 189C901.88 192.911 927.4 185.115 972.88 254H901.88V189ZM1543.38 240L1522.88 266.5L1362.88 267L1377.38 241.5L1543.38 240ZM1360.38 243L1331.38 290.5L1173.88 266.5C1173.88 266.5 1182.16 251.646 1186.38 244.5C1244.37 244.5 1360.38 243 1360.38 243ZM1171.88 244.5L1159.38 266C1159.38 266 1072.12 260.969 1035.88 247.5L1171.88 244.5ZM1356.38 280H1466.88L1447.38 306L1347.88 295.5L1356.38 280ZM8.38003 525C4.05723 526.094 0.848829 529.724 0.296629 534.146C-0.255451 538.568 1.95809 542.875 5.88003 545C5.88003 545 45.088 571 108.38 571C165 571 197.614 552.38 204.88 548C212.692 552.667 245.344 571 301.38 571C357.416 571 390.068 552.667 397.88 548C405.146 552.38 437.76 571 494.38 571C550.546 571 583.692 552.604 591.38 548C599.068 552.604 632.214 571 688.38 571C745 571 777.614 552.38 784.88 548C792.692 552.667 825.344 571 881.38 571C937.416 571 970.068 552.667 977.88 548C985.146 552.38 1017.76 571 1074.38 571C1131 571 1164.11 552.38 1171.38 548C1179.19 552.667 1211.84 571 1267.88 571C1324.5 571 1357.61 552.38 1364.88 548C1372.69 552.667 1405.34 571 1461.38 571C1524.67 571 1563.88 545 1563.88 545C1566.45 543.49 1568.29 540.99 1568.95 538.083C1569.62 535.177 1569.06 532.125 1567.41 529.646C1565.75 527.167 1563.15 525.479 1560.21 524.974C1557.28 524.474 1554.26 525.208 1551.88 527C1551.88 527 1518.9 549.5 1461.38 549.5C1404.77 549.5 1372.41 528.188 1371.38 527.5C1371.22 527.328 1371.05 527.161 1370.88 527C1370.41 526.625 1369.91 526.292 1369.38 526C1369.21 525.995 1369.05 525.995 1368.88 526C1368.55 525.818 1368.22 525.651 1367.88 525.5C1367.39 525.297 1366.89 525.13 1366.38 525C1365.39 524.859 1364.37 524.859 1363.38 525C1363.21 524.995 1363.05 524.995 1362.88 525C1362 525.229 1361.17 525.562 1360.38 526C1360.05 525.984 1359.71 525.984 1359.38 526C1359.2 526.323 1359.03 526.656 1358.88 527C1358.88 527 1358.39 526.995 1358.38 527C1358.21 527.161 1358.04 527.328 1357.88 527.5C1357.86 527.521 1356.92 527.969 1356.88 528C1354.2 529.74 1322.96 549.5 1267.88 549.5C1212.8 549.5 1181.56 529.74 1178.88 528C1178.76 527.922 1176.88 527 1176.88 527C1176.73 526.656 1176.56 526.323 1176.38 526C1176.05 525.818 1175.72 525.651 1175.38 525.5C1175.05 525.484 1174.71 525.484 1174.38 525.5C1173.57 525.234 1172.73 525.068 1171.88 525C1171.71 524.995 1171.55 524.995 1171.38 525C1171.21 524.995 1171.05 524.995 1170.88 525C1170.71 524.995 1170.55 524.995 1170.38 525C1169.87 525.13 1169.36 525.297 1168.88 525.5C1168.55 525.484 1168.21 525.484 1167.88 525.5C1167.54 525.651 1167.2 525.818 1166.88 526C1166.53 526.312 1166.19 526.646 1165.88 527C1165.71 526.995 1165.55 526.995 1165.38 527C1165.38 527 1163.5 527.922 1163.38 528C1160.7 529.74 1129.46 549.5 1074.38 549.5C1019.3 549.5 988.558 529.74 985.88 528C985.745 527.922 983.88 527 983.88 527C983.729 526.656 983.562 526.323 983.38 526C982.89 525.797 982.39 525.63 981.88 525.5C981.547 525.484 981.213 525.484 980.88 525.5C980.547 525.484 980.213 525.484 979.88 525.5C979.552 525.318 979.218 525.151 978.88 525C978.213 524.937 977.547 524.937 976.88 525C976.713 524.995 976.547 524.995 976.38 525C976.213 524.995 976.047 524.995 975.88 525C975.37 525.13 974.864 525.297 974.38 525.5C974.208 525.661 974.041 525.828 973.88 526C973.526 526.312 973.192 526.646 972.88 527C972.547 526.984 972.213 526.984 971.88 527C971.88 527 970 527.922 969.88 528C967.203 529.74 936.458 549.5 881.38 549.5C826.302 549.5 795.558 529.74 792.88 528C791.698 527.062 790.338 526.38 788.88 526C788.552 525.818 788.219 525.651 787.88 525.5C787.547 525.484 787.213 525.484 786.88 525.5C786.552 525.318 786.218 525.151 785.88 525C784.885 524.859 783.875 524.859 782.88 525C782.37 525.13 781.864 525.297 781.38 525.5C780.87 525.63 780.364 525.797 779.88 526C779.713 525.995 779.547 525.995 779.38 526C779.198 526.323 779.026 526.656 778.88 527C778.88 527 778.385 526.995 778.38 527C777.854 527.292 777.349 527.625 776.88 528C774.203 529.74 743.458 549.5 688.38 549.5C631.77 549.5 599.412 528.188 598.38 527.5C598.364 527.49 597.88 527 597.88 527C597.406 526.625 596.906 526.292 596.38 526C596.213 525.995 596.047 525.995 595.88 526C595.39 525.797 594.89 525.63 594.38 525.5C594.052 525.318 593.719 525.151 593.38 525C592.713 524.937 592.047 524.937 591.38 525C590.88 524.964 590.38 524.964 589.88 525C589.536 525.151 589.203 525.318 588.88 525.5C588.198 525.604 587.526 525.771 586.88 526C586.713 525.995 586.547 525.995 586.38 526C585.854 526.292 585.349 526.625 584.88 527C584.88 527 583.5 527.922 583.38 528C580.703 529.74 549.458 549.5 494.38 549.5C439.302 549.5 408.558 529.74 405.88 528C405.76 527.922 403.88 527 403.88 527C403.729 526.656 403.562 526.323 403.38 526C402.89 525.797 402.39 525.63 401.88 525.5C401.713 525.495 401.547 525.495 401.38 525.5C400.567 525.234 399.729 525.068 398.88 525C398.713 524.995 398.547 524.995 398.38 525C397.88 524.964 397.38 524.964 396.88 525C396.031 525.068 395.187 525.234 394.38 525.5C394.208 525.661 394.041 525.828 393.88 526C393.526 526.312 393.192 526.646 392.88 527C392.547 526.984 392.213 526.984 391.88 527C391.88 527 390 527.922 389.88 528C387.203 529.74 356.458 549.5 301.38 549.5C246.302 549.5 215.558 529.74 212.88 528C212.39 527.797 211.89 527.63 211.38 527.5C211.364 527.49 210.88 527 210.88 527C210.567 526.646 210.234 526.312 209.88 526C209.713 525.995 209.547 525.995 209.38 526C209.213 525.995 209.047 525.995 208.88 526C208.552 525.818 208.219 525.651 207.88 525.5C207.547 525.484 207.213 525.484 206.88 525.5C206.552 525.318 206.219 525.151 205.88 525C205.38 524.964 204.88 524.964 204.38 525C204.213 524.995 204.047 524.995 203.88 525C203.547 524.984 203.213 524.984 202.88 525C202.37 525.13 201.864 525.297 201.38 525.5C200.87 525.63 200.364 525.797 199.88 526C199.526 526.312 199.192 526.646 198.88 527C198.88 527 197.927 527.469 197.88 527.5C197.536 527.651 197.203 527.818 196.88 528C194.203 529.74 163.458 549.5 108.38 549.5C50.8599 549.5 17.8799 527 17.8799 527C15.4529 525.167 12.3695 524.443 9.37995 525C9.04663 524.984 8.71337 524.984 8.38003 525Z" fill="#C72E45" stroke="#C72E45" stroke-width="0.190352"/>
</svg>
