<svg width="118" height="91" viewBox="0 0 118 91" fill="none" xmlns="http://www.w3.org/2000/svg">
<path d="M18.4371 2.6845L41.951 9.17204L55.0023 0L59.5429 1.11854L46.6145 10.3176L117.869 30.1146L112.655 49.4912L41.1349 29.7483C13.427 21.3924 18.4789 2.6845 18.4789 2.6845" fill="#C72E45"/>
<path d="M81.0193 52.2593C80.9332 50.6417 80.626 49.1003 80.0974 47.645L112.747 56.7334L111.699 60.7626L81.0193 52.2593ZM51.357 44.0681C52.2371 42.7873 53.2795 41.6319 54.4644 40.6313L0 25.5863V29.9204L51.357 44.0681ZM64.8435 58.4149C67.7713 58.4149 70.1485 56.0328 70.1485 53.1049C70.1485 50.1672 67.7713 47.79 64.8435 47.79C61.9057 47.79 59.531 50.1672 59.531 53.1049C59.531 56.0328 61.9057 58.4149 64.8435 58.4149ZM118 90.9583C115.416 90.9583 112.958 90.3733 110.765 89.3653C108.484 88.3328 105.939 87.7133 103.275 87.7133C100.62 87.7133 98.0605 88.3328 95.8135 89.3653C93.5887 90.3733 91.1353 90.9583 88.5492 90.9583C85.9655 90.9583 83.5022 90.3733 81.2848 89.3653C79.0231 88.3328 76.4837 87.7133 73.8237 87.7133C71.154 87.7133 68.6145 88.3328 66.3381 89.3653C64.1428 90.3733 61.655 90.9583 59.0836 90.9583C56.5146 90.9583 54.0415 90.3733 51.834 89.3653C49.5575 88.3328 46.9984 87.7133 44.3459 87.7133C41.6909 87.7133 39.1342 88.3328 36.8848 89.3653C34.6772 90.3733 32.1919 90.9583 29.618 90.9583C27.049 90.9583 24.576 90.3733 22.3536 89.3653C20.1018 88.3328 17.5451 87.7133 14.8901 87.7133C12.2376 87.7133 9.68092 88.3328 7.41679 89.3653C5.21167 90.3733 2.72383 90.9583 0.167167 90.9583L0 47.6794L59.558 64.1158C55.4526 62.1319 52.601 57.97 52.601 53.1049C52.601 46.3347 58.0757 40.8551 64.841 40.8551C71.5867 40.8551 77.0761 46.3347 77.0761 53.1049C77.0761 59.8703 71.5891 65.3474 64.841 65.3474L63.6364 65.2319L117.911 80.1982L118 90.9583Z" fill="#C72E45"/>
</svg>
