<svg width="86" height="66" viewBox="0 0 86 66" fill="none" xmlns="http://www.w3.org/2000/svg">
<path d="M9.92123 37.0131C11.3692 39.3901 13.6452 39.4171 16.1272 39.2761C17.0892 39.2211 17.7182 40.9061 18.2132 41.6361C20.3932 44.8581 22.5722 48.0781 24.7522 51.3001C21.4072 51.6611 18.0622 52.0221 14.7162 52.3831C13.4822 52.5161 12.2482 52.6501 11.0132 52.7821C8.32523 53.0721 8.85423 57.9701 11.5412 57.6791C16.5202 57.1421 21.4982 56.6051 26.4762 56.0681C40.6892 54.5341 54.9032 53.0011 69.1162 51.4661C70.7492 51.2901 71.3182 49.3961 70.7822 48.0281C70.0992 46.2851 68.5992 46.5691 67.1472 46.7251C64.1362 47.0501 61.1262 47.3741 58.1162 47.6991C58.6212 44.4901 54.8122 42.4141 52.6402 40.8021C49.4282 38.4171 46.2162 36.0321 43.0032 33.6481C40.9432 32.1191 38.1812 29.3571 35.4962 29.2741C32.5612 28.7061 29.3272 28.8531 26.3442 28.6511C27.0252 25.8971 27.8872 23.1331 28.3722 20.3371C31.1442 21.5491 34.6722 23.8661 37.7932 23.4641C41.1032 23.0381 44.4142 22.6111 47.7232 22.1851C50.4082 21.8391 50.3382 17.6061 47.7342 17.1731C46.2492 16.9251 44.3732 17.5141 42.9122 17.7031C41.2002 17.9231 39.4882 18.1441 37.7762 18.3651C37.1422 18.4471 35.1652 17.2031 34.5822 16.9481C29.0182 14.5161 17.4702 7.23911 13.0622 14.8191C11.2882 17.8701 10.9082 22.1921 10.0752 25.5631C9.21923 29.0291 8.02923 32.8131 9.54823 36.2901C9.66623 36.5341 9.79023 36.7751 9.92123 37.0131ZM29.9662 48.7451C27.7382 45.4531 25.5112 42.1601 23.2842 38.8681C26.1132 38.7071 28.9412 38.5471 31.7702 38.3861C33.6052 38.2821 35.6072 37.6651 37.1282 38.6731C42.0172 41.9091 46.9072 45.1461 51.7952 48.3821C47.9912 48.7921 44.1882 49.2031 40.3842 49.6131C37.9432 49.8771 35.5012 50.1401 33.0602 50.4041C32.4072 50.4741 31.7542 50.5451 31.1022 50.6151C30.1782 50.7151 30.4602 49.4721 29.9662 48.7451Z" fill="#C72E45"/>
<path d="M23.8894 11.838C31.0404 11.838 31.0404 0.227051 23.8894 0.227051C16.7374 0.227051 16.7374 11.838 23.8894 11.838Z" fill="#C72E45"/>
<path d="M51.0703 17.441C51.0703 17.854 50.9393 20.608 51.1763 20.608C52.0533 20.608 52.9303 20.608 53.8073 20.608C57.6593 20.608 61.5103 20.608 65.3623 20.608C71.9693 20.608 78.5773 20.608 85.1843 20.608C85.1713 20.608 85.2693 17.441 85.1483 17.441C84.3553 17.441 83.5633 17.441 82.7703 17.441C78.9983 17.441 75.2253 17.441 71.4533 17.441C64.6753 17.441 57.8963 17.441 51.1183 17.441H51.0703Z" fill="#C72E45"/>
<path d="M68.913 58.6191C58.004 53.8551 45.867 53.421 34.849 58.168C29.506 60.47 24.455 62.06 18.564 62.171C12.1 62.293 6.54102 60.8911 0.666016 58.3691C0.666016 59.4001 0.666016 60.432 0.666016 61.462C0.666016 62.289 3.26202 62.906 4.00902 63.178C8.01201 64.636 12.214 65.259 16.464 65.338C20.886 65.42 25.338 65.02 29.571 63.682C32.601 62.724 35.428 61.269 38.391 60.138C46.054 57.215 55.407 57.0561 63.167 59.7161C66.164 60.7421 68.98 62.222 71.963 63.281C76.218 64.793 80.694 65.347 85.196 65.347C85.196 64.327 85.196 63.308 85.196 62.288C85.196 62.267 79.517 61.851 78.808 61.745C75.332 61.224 72.117 60.0201 68.913 58.6191C73.107 60.4521 64.605 56.7381 68.913 58.6191Z" fill="#C72E45"/>
</svg>
