<svg width="100" height="100" viewBox="0 0 100 100" fill="none" xmlns="http://www.w3.org/2000/svg">
<path d="M96.715 46.715H86.705C86.021 39.016 82.963 31.99 78.266 26.379L85.356 19.289C86.637 18.007 86.637 15.927 85.356 14.643C84.073 13.361 81.993 13.361 80.71 14.643L73.62 21.733C68.009 17.037 60.983 13.977 53.285 13.294V3.285C53.285 1.47 51.814 0 50 0C48.186 0 46.715 1.47 46.715 3.284V13.294C39.016 13.978 31.991 17.036 26.38 21.733L19.29 14.643C18.007 13.361 15.928 13.361 14.645 14.643C13.362 15.925 13.362 18.005 14.645 19.289L21.735 26.379C17.037 31.99 13.978 39.016 13.294 46.715H3.285C1.471 46.715 0 48.186 0 50C0 51.814 1.471 53.285 3.285 53.285H13.294C13.978 60.983 17.037 68.01 21.734 73.621L14.645 80.711C13.362 81.993 13.362 84.073 14.645 85.356C15.287 85.998 16.127 86.318 16.968 86.318C17.808 86.318 18.649 85.998 19.29 85.356L26.38 78.267C31.992 82.964 39.017 86.024 46.716 86.707V96.716C46.716 98.529 48.187 100 50.001 100C51.815 100 53.286 98.529 53.286 96.716V86.707C60.984 86.023 68.01 82.964 73.623 78.267L80.711 85.356C81.354 85.998 82.193 86.318 83.035 86.318C83.875 86.318 84.715 85.998 85.357 85.356C86.638 84.074 86.638 81.994 85.357 80.71L78.267 73.621C82.964 68.01 86.023 60.983 86.706 53.285H96.716C98.53 53.285 100 51.814 100 50C100 48.186 98.53 46.715 96.715 46.715ZM80.106 46.715H65.163C64.765 44.866 64.036 43.142 63.042 41.603L73.6 31.044C77.133 35.433 79.467 40.823 80.106 46.715ZM43.025 50C43.025 46.148 46.148 43.025 50 43.025C53.852 43.025 56.975 46.148 56.975 50C56.975 53.852 53.852 56.975 50 56.975C46.148 56.975 43.025 53.852 43.025 50ZM68.956 26.4L58.397 36.958C56.858 35.965 55.133 35.236 53.285 34.838V19.894C59.176 20.533 64.567 22.868 68.956 26.4ZM46.715 19.894V34.837C44.867 35.235 43.142 35.964 41.603 36.957L31.045 26.4C35.434 22.868 40.823 20.533 46.715 19.894ZM26.4 31.044L36.958 41.603C35.965 43.142 35.236 44.867 34.837 46.715H19.894C20.532 40.823 22.868 35.433 26.4 31.044ZM19.894 53.285H34.838C35.236 55.134 35.965 56.858 36.958 58.397L26.399 68.956C22.867 64.567 20.532 59.176 19.894 53.285ZM31.044 73.601L41.602 63.042C43.141 64.035 44.866 64.764 46.715 65.163V80.106C40.823 79.468 35.434 77.133 31.044 73.601ZM53.285 80.107V65.164C55.134 64.765 56.858 64.036 58.397 63.043L68.956 73.6C64.567 77.132 59.176 79.468 53.285 80.107ZM73.6 68.956L63.043 58.397C64.035 56.858 64.764 55.133 65.162 53.285H80.105C79.467 59.176 77.133 64.566 73.6 68.956Z" fill="#C72E45"/>
</svg>
